<svg width="124" height="16" viewBox="0 0 124 16" fill="none" xmlns="http://www.w3.org/2000/svg">
<path d="M7.01687 6.6526C6.96858 6.47362 6.89756 6.31595 6.80381 6.17959C6.71006 6.04039 6.595 5.92249 6.45863 5.8259C6.32227 5.72931 6.16602 5.65686 5.98988 5.60857C5.81375 5.55743 5.62057 5.53186 5.41034 5.53186C4.98704 5.53186 4.62057 5.63414 4.31091 5.83868C4.00409 6.04323 3.76687 6.34152 3.59926 6.73357C3.43165 7.12277 3.34784 7.59578 3.34784 8.1526C3.34784 8.71226 3.42881 9.18953 3.59074 9.58442C3.75267 9.97931 3.98704 10.2804 4.29386 10.4878C4.60068 10.6952 4.97284 10.7989 5.41034 10.7989C5.7967 10.7989 6.12341 10.7364 6.39045 10.6114C6.66034 10.4836 6.86488 10.3032 7.00409 10.0702C7.14329 9.83726 7.2129 9.56311 7.2129 9.24777L7.60494 9.29465H5.48278V7.75629H9.24557V8.91112C9.24557 9.69237 9.07937 10.3614 8.74699 10.9182C8.41744 11.475 7.9629 11.9026 7.38335 12.2009C6.80665 12.4992 6.14329 12.6483 5.39329 12.6483C4.56091 12.6483 3.82937 12.4679 3.19869 12.1071C2.56801 11.7464 2.07653 11.2321 1.72426 10.5645C1.37199 9.89408 1.19585 9.09862 1.19585 8.17817C1.19585 7.46226 1.30238 6.82732 1.51545 6.27334C1.72852 5.71652 2.0254 5.24493 2.40608 4.85857C2.7896 4.4722 3.23278 4.17959 3.73562 3.98073C4.24131 3.78186 4.78534 3.68243 5.36773 3.68243C5.87341 3.68243 6.34358 3.75487 6.77824 3.89976C7.21574 4.04465 7.6021 4.24919 7.93733 4.5134C8.2754 4.7776 8.54954 5.09152 8.75977 5.45516C8.97 5.81879 9.10068 6.21794 9.15182 6.6526H7.01687ZM10.4888 12.529V3.80175H16.574V5.51482H12.5982V7.30459H16.263V9.02192H12.5982V10.816H16.574V12.529H10.4888ZM17.6096 5.51482V3.80175H24.986V5.51482H22.3397V12.529H20.2601V5.51482H17.6096ZM28.5943 12.529V3.80175H30.7037V10.816H34.3343V12.529H28.5943ZM40.7061 3.80175H42.8113V9.43101C42.8113 10.0816 42.6564 10.6483 42.3468 11.1313C42.0371 11.6114 41.6053 11.9836 41.0513 12.2478C40.4973 12.5091 39.8539 12.6398 39.1209 12.6398C38.3794 12.6398 37.7317 12.5091 37.1777 12.2478C36.6238 11.9836 36.1934 11.6114 35.8865 11.1313C35.5797 10.6483 35.4263 10.0816 35.4263 9.43101V3.80175H37.5357V9.24777C37.5357 9.54891 37.601 9.81737 37.7317 10.0532C37.8652 10.289 38.0513 10.4736 38.29 10.6071C38.5286 10.7407 38.8056 10.8074 39.1209 10.8074C39.4363 10.8074 39.7118 10.7407 39.9476 10.6071C40.1863 10.4736 40.3723 10.289 40.5059 10.0532C40.6394 9.81737 40.7061 9.54891 40.7061 9.24777V3.80175ZM52.0552 6.96368H49.9245C49.8961 6.74493 49.8379 6.54749 49.7498 6.37135C49.6618 6.19522 49.5453 6.04465 49.4004 5.91965C49.2555 5.79465 49.0836 5.69948 48.8848 5.63414C48.6887 5.56595 48.4714 5.53186 48.2328 5.53186C47.8095 5.53186 47.4444 5.63556 47.1376 5.84294C46.8336 6.05033 46.5993 6.35004 46.4345 6.74209C46.2726 7.13414 46.1916 7.60857 46.1916 8.16539C46.1916 8.74493 46.274 9.23073 46.4387 9.62277C46.6064 10.012 46.8407 10.306 47.1419 10.5049C47.4459 10.7009 47.8052 10.7989 48.22 10.7989C48.453 10.7989 48.6646 10.7691 48.8549 10.7094C49.0481 10.6498 49.2172 10.5631 49.362 10.4495C49.5098 10.333 49.6305 10.1924 49.7243 10.0276C49.8209 9.85999 49.8876 9.67107 49.9245 9.46084L52.0552 9.47362C52.0183 9.85999 51.9061 10.2407 51.7186 10.6157C51.5339 10.9907 51.2797 11.333 50.9558 11.6427C50.6319 11.9495 50.237 12.1938 49.7711 12.3756C49.3081 12.5574 48.7768 12.6483 48.1774 12.6483C47.3876 12.6483 46.6802 12.475 46.0552 12.1285C45.4331 11.779 44.9416 11.2705 44.5808 10.6029C44.22 9.93527 44.0396 9.12277 44.0396 8.16539C44.0396 7.20516 44.2228 6.39124 44.5893 5.72362C44.9558 5.05601 45.4515 4.54891 46.0765 4.20232C46.7015 3.85573 47.4018 3.68243 48.1774 3.68243C48.7058 3.68243 49.1944 3.75629 49.6433 3.90402C50.0922 4.04891 50.487 4.26198 50.828 4.54323C51.1689 4.82164 51.4459 5.16397 51.6589 5.57022C51.872 5.97647 52.0041 6.44095 52.0552 6.96368ZM53.2623 12.529V3.80175H55.3716V7.49209H55.4867L58.3716 3.80175H60.856L57.7623 7.69664L60.9114 12.529H58.3887L56.2154 9.09862L55.3716 10.164V12.529H53.2623ZM61.2534 3.80175H63.6099L65.4551 7.45374H65.5318L67.377 3.80175H69.7335L66.5417 9.61425V12.529H64.4451V9.61425L61.2534 3.80175ZM75.1177 10.0404C74.774 10.0404 74.4601 9.95658 74.176 9.78897C73.8919 9.61851 73.6646 9.39124 73.4941 9.10715C73.3265 8.82306 73.2427 8.50914 73.2427 8.16539C73.2427 7.81879 73.3265 7.50487 73.4941 7.22362C73.6646 6.93953 73.8919 6.71368 74.176 6.54607C74.4601 6.37561 74.774 6.29039 75.1177 6.29039C75.4643 6.29039 75.7782 6.37561 76.0595 6.54607C76.3436 6.71368 76.5694 6.93953 76.737 7.22362C76.9075 7.50487 76.9927 7.81879 76.9927 8.16539C76.9927 8.50914 76.9075 8.82306 76.737 9.10715C76.5694 9.39124 76.3436 9.61851 76.0595 9.78897C75.7782 9.95658 75.4643 10.0404 75.1177 10.0404ZM80.6564 5.51482V3.80175H88.0329V5.51482H85.3865V12.529H83.307V5.51482H80.6564ZM96.937 8.16539C96.937 9.12561 96.7523 9.93953 96.383 10.6071C96.0137 11.2748 95.5137 11.7819 94.883 12.1285C94.2552 12.475 93.5506 12.6483 92.7694 12.6483C91.9853 12.6483 91.2793 12.4736 90.6515 12.1242C90.0236 11.7748 89.525 11.2677 89.1557 10.6029C88.7892 9.93527 88.606 9.12277 88.606 8.16539C88.606 7.20516 88.7892 6.39124 89.1557 5.72362C89.525 5.05601 90.0236 4.54891 90.6515 4.20232C91.2793 3.85573 91.9853 3.68243 92.7694 3.68243C93.5506 3.68243 94.2552 3.85573 94.883 4.20232C95.5137 4.54891 96.0137 5.05601 96.383 5.72362C96.7523 6.39124 96.937 7.20516 96.937 8.16539ZM94.7807 8.16539C94.7807 7.5972 94.6998 7.11709 94.5378 6.72504C94.3787 6.333 94.1486 6.03612 93.8475 5.83442C93.5492 5.63271 93.1898 5.53186 92.7694 5.53186C92.3517 5.53186 91.9924 5.63271 91.6912 5.83442C91.3901 6.03612 91.1586 6.333 90.9966 6.72504C90.8375 7.11709 90.758 7.5972 90.758 8.16539C90.758 8.73357 90.8375 9.21368 90.9966 9.60573C91.1586 9.99777 91.3901 10.2946 91.6912 10.4964C91.9924 10.6981 92.3517 10.7989 92.7694 10.7989C93.1898 10.7989 93.5492 10.6981 93.8475 10.4964C94.1486 10.2946 94.3787 9.99777 94.5378 9.60573C94.6998 9.21368 94.7807 8.73357 94.7807 8.16539ZM101.394 12.529H98.1685V3.80175H101.39C102.279 3.80175 103.045 3.97647 103.687 4.3259C104.332 4.67249 104.829 5.17249 105.178 5.8259C105.528 6.47647 105.703 7.25487 105.703 8.16112C105.703 9.07022 105.528 9.85147 105.178 10.5049C104.832 11.1583 104.336 11.6597 103.691 12.0091C103.046 12.3557 102.281 12.529 101.394 12.529ZM100.278 10.7307H101.313C101.802 10.7307 102.215 10.6483 102.553 10.4836C102.894 10.316 103.151 10.0446 103.325 9.66965C103.501 9.29181 103.589 8.78897 103.589 8.16112C103.589 7.53328 103.501 7.03328 103.325 6.66112C103.149 6.28612 102.889 6.01624 102.545 5.85147C102.204 5.68385 101.784 5.60004 101.284 5.60004H100.278V10.7307ZM108.412 12.529H106.145L109.089 3.80175H111.898L114.842 12.529H112.575L110.525 6.00061H110.457L108.412 12.529ZM108.109 9.09436H112.848V10.6966H108.109V9.09436ZM114.457 3.80175H116.813L118.658 7.45374H118.735L120.58 3.80175H122.937L119.745 9.61425V12.529H117.648V9.61425L114.457 3.80175Z" fill="black"/>
</svg>
