<svg width="1280" height="478" viewBox="0 0 1280 478" fill="none" xmlns="http://www.w3.org/2000/svg">
<path d="M0.49465 103.819L0.494629 470H1279.51V86.5559C1097.52 105.482 987.635 161.204 864.4 174.813C741.165 188.422 593.606 160.254 420.356 94.7397C247.106 29.225 68.4358 73.4885 0.49465 103.819Z" fill="#A2C1A0"/>
<path d="M0.49465 143.819L0.494629 510H1279.51V126.556C1097.52 145.482 987.635 201.204 864.4 214.813C741.165 228.422 593.606 200.254 420.356 134.74C247.106 69.225 68.4358 113.489 0.49465 143.819Z" fill="#658963"/>
<path d="M-1.5835 97.4562C35.6061 74.8917 105.574 22.8089 263.483 22.8089C404.916 22.8088 480.559 123.231 634.862 189.053C757.674 241.441 855.031 261.956 1021.25 189.053C1109.84 150.196 1283.87 22.8089 1283.87 22.8089" stroke="#FDFFF5" stroke-width="9"/>
</svg>
